<svg width="70" height="71" viewBox="0 0 70 71" fill="none" xmlns="http://www.w3.org/2000/svg">
<rect y="0.678833" width="70" height="70" rx="5" fill="#678C92"/>
<rect y="0.678833" width="70" height="70" rx="5" fill="url(#paint0_linear_1_65)" fill-opacity="0.2"/>
<path fill-rule="evenodd" clip-rule="evenodd" d="M35 35.1163C35.8284 35.1163 36.5 35.7879 36.5 36.6163V47.8663C36.5 48.6948 35.8284 49.3663 35 49.3663C34.1716 49.3663 33.5 48.6948 33.5 47.8663V36.6163C33.5 35.7879 34.1716 35.1163 35 35.1163Z" fill="#F4F7FF"/>
<path fill-rule="evenodd" clip-rule="evenodd" d="M35 32.4913C34.2751 32.4913 33.6875 33.079 33.6875 33.8038C33.6875 34.5287 34.2751 35.1163 35 35.1163C35.7249 35.1163 36.3125 34.5287 36.3125 33.8038C36.3125 33.079 35.7249 32.4913 35 32.4913ZM30.6875 33.8038C30.6875 31.4221 32.6183 29.4913 35 29.4913C37.3817 29.4913 39.3125 31.4221 39.3125 33.8038C39.3125 36.1856 37.3817 38.1163 35 38.1163C32.6183 38.1163 30.6875 36.1856 30.6875 33.8038Z" fill="#F4F7FF"/>
<path fill-rule="evenodd" clip-rule="evenodd" d="M27.4945 22.4314C27.7759 22.1497 28.1577 21.9913 28.5559 21.9913H41.4442C41.8423 21.9913 42.2242 22.1497 42.5056 22.4314C42.7869 22.7132 42.9447 23.0952 42.9442 23.4934C42.9401 26.415 44.018 29.2262 45.9558 31.367C46.4087 31.8673 46.4717 32.6085 46.1098 33.1781L36.2661 48.6708C35.9909 49.1039 35.5133 49.3663 35 49.3663C34.4868 49.3663 34.0092 49.1039 33.734 48.6708L23.8902 33.1781C23.5283 32.6085 23.5913 31.8674 24.0442 31.3671C25.982 29.2262 27.06 26.415 27.0559 23.4934C27.0554 23.0952 27.2132 22.7132 27.4945 22.4314ZM29.9817 24.9913C29.7073 27.7224 28.6787 30.3246 27.0093 32.4931L35 45.0693L42.9907 32.4931C41.3214 30.3246 40.2928 27.7223 40.0184 24.9913H29.9817Z" fill="#F4F7FF"/>
<defs>
<linearGradient id="paint0_linear_1_65" x1="0" y1="0.678833" x2="70" y2="70.6788" gradientUnits="userSpaceOnUse">
<stop stop-color="#678C92"/>
<stop offset="1" stop-color="#9ED5DE"/>
</linearGradient>
</defs>
</svg>
